PathFileType	4	(X/Y/Z)	C:/Users/beibeiliu/ov580/test_trc/User3\sequence.30_training_dense_left.trc
DataRate	CameraRate	NumFrames	NumMarkers	Units	OrigDataRate	OrigDataStartFrame	OrigNumFrames
120	120	23	19	mm	120	30	239
Frame#	Time	ThumbCMC			ThumbMCP			ThumbIP			ThumbTip			IndexMCP			IndexPIP			IndexTip			MiddleMCP			MiddlePIP			MiddleTip			RingMCP			RingPIP			RingTip			PinkyMCP			PinkyPIP			PinkyTip			BackHand1			BackHand2			BackHand3	
		X0	Y0	Z0	X1	Y1	Z1	X2	Y2	Z2	X3	Y3	Z3	X4	Y4	Z4	X5	Y5	Z5	X6	Y6	Z6	X7	Y7	Z7	X8	Y8	Z8	X9	Y9	Z9	X10	Y10	Z10	X11	Y11	Z11	X12	Y12	Z12	X13	Y13	Z13	X14	Y14	Z14	X15	Y15	Z15	X16	Y16	Z16	X17	Y17	Z17	X18	Y18	Z18	
29	0.241667	-139.699	-33.735	17.0379	-128.076	-38.9759	-14.1732	-119.847	-43.5563	-44.4735	-136.864	-50.9911	-67.3704	-155.768	4.6607	-49.0765	-146.589	-3.65705	-81.1436	-135.079	-35.2413	-68.873	-169.634	-15.3915	-64.5736	-156.584	-44.6163	-71.9246	-156.242	-47.9099	-30.7988	-179.737	-34.6775	-55.9944	-168.907	-61.3535	-48.9413	-171.026	-54.1116	-17.1879	-193.417	-43.4812	-46.2497	-178.913	-66.6678	-35.7727	-179.239	-55.5334	-7.70017	-195.758	-10.0474	-3.8255	-199.987	-19.6747	24.454	-168.125	-5.63834	15.6065	
30	0.25	-142.905	-31.429	13.4928	-125.166	-36.4573	-16.5794	-126.528	-41.7539	-43.3595	-142.574	-46.8832	-66.5824	-151.424	8.19965	-53.2197	-147.02	-5.74049	-79.5548	-138.152	-37.2046	-60.7732	-168.914	-16.2093	-60.3005	-156.258	-47.3009	-66.7505	-158.361	-47.7788	-29.0063	-179.262	-34.9707	-56.2801	-170.267	-62.0403	-44.1919	-166.716	-48.8006	-14.5909	-193.226	-45.1104	-46.8119	-180.717	-65.2949	-35.6749	-180.623	-53.6746	-3.33291	-201.104	-8.32316	-6.73329	-202.829	-20.309	25.6464	-170.622	-4.89905	15.0396	
31	0.258333	-141.383	-31.3761	16.8578	-123.386	-36.6636	-15.2792	-126.056	-39.1778	-42.6647	-139.251	-45.0418	-68.1226	-153.318	7.07702	-52.7083	-141.066	-7.47777	-76.9497	-134.469	-34.3076	-55.4347	-164.17	-17.3597	-61.6575	-152.276	-46.5552	-61.3113	-154.881	-44.4234	-21.6843	-181.344	-34.1117	-51.9564	-167.93	-58.6571	-45.4669	-167.794	-48.4746	-12.0001	-196.208	-43.3511	-44.7371	-180.124	-65.8134	-32.4172	-180.522	-56.7047	-5.86515	-199.871	-8.10743	-4.02001	-200.463	-21.1284	27.7579	-166.072	-4.61044	15.9984	
32	0.266667	-140.873	-29.1996	16.4041	-124.499	-34.1704	-12.6177	-122.375	-38.0061	-43.9169	-141.115	-43.6221	-64.1566	-150.355	7.67396	-47.8002	-140.729	-10.1503	-75.2304	-136.033	-34.8409	-52.8015	-166.244	-16.3332	-57.7127	-151.724	-46.0647	-61.6965	-154.279	-43.7039	-21.5768	-177.551	-31.9776	-51.4565	-166.674	-59.1778	-43.8887	-167.798	-49.5755	-11.1389	-194.184	-45.4003	-44.7187	-175.428	-62.1184	-32.2813	-179.224	-52.573	-2.54273	-201.108	-8.48311	-5.03733	-200.912	-21.3916	27.7274	-172.643	-6.72214	16.4463	
33	0.275	-138.797	-24.3586	18.3759	-123.057	-29.9515	-13.5654	-123.194	-35.0433	-46.9186	-138.592	-44.1338	-62.5004	-155.754	5.51492	-50.866	-142.785	-10.6537	-76.821	-134.061	-34.5612	-54.1424	-162.992	-18.3038	-59.9064	-148.821	-45.9298	-60.1601	-152.41	-44.4285	-21.6879	-174.374	-35.6332	-51.9604	-162.737	-59.0849	-41.4625	-166.704	-47.0675	-8.67745	-188.801	-50.2152	-46.0856	-172.149	-62.4773	-29.8273	-177.674	-56.5675	-1.13487	-199.559	-8.88711	-6.38162	-202.925	-19.2803	22.6996	-174.896	-2.34994	14.5538	
34	0.283333	-142.601	-19.6242	17.9035	-121.862	-26.4058	-11.5872	-121.575	-33.6425	-41.2417	-138.025	-45.4127	-60.433	-157.432	6.41065	-52.1289	-142.565	-11.1005	-79.6459	-130.471	-33.4866	-65.621	-161.611	-21.1363	-62.2373	-144.676	-48.1221	-56.3927	-152.942	-40.2247	-18.014	-174.727	-39.8703	-52.533	-153.991	-59.7411	-37.6326	-163.617	-46.1799	-7.29526	-188.775	-52.0918	-43.9844	-166.07	-64.913	-27.6287	-172.048	-52.8148	-0.865958	-201.758	-13.2138	-9.22907	-205.8	-23.3084	23.9525	-179.6	-2.67428	11.263	
35	0.291667	-143.883	-14.3014	17.8248	-125.339	-20.6318	-14.7226	-122.457	-31.2712	-40.3537	-135.324	-48.379	-57.4494	-162.46	6.3612	-57.1739	-143.998	-5.04951	-86.0513	-127.134	-27.2344	-80.5866	-162.527	-28.73	-64.053	-138.07	-47.0559	-54.2658	-147.946	-38.362	-17.3143	-170.629	-45.9674	-52.6294	-148.44	-60.9038	-34.4157	-158.053	-46.3815	-8.09869	-178.06	-60.081	-45.8743	-158.714	-65.9309	-25.323	-169.257	-56.0661	-1.44985	-206.057	-20.4132	-15.5552	-209.812	-26.5482	18.3678	-183.048	-4.58559	8.59261	
36	0.3	-148.314	-8.23253	14.7448	-128.354	-17.1553	-15.0376	-121.241	-30.1224	-39.3357	-128.097	-51.7615	-59.1207	-169.104	-1.74137	-61.5096	-157.586	-5.8822	-89.5646	-133.233	-24.7778	-97.7398	-160.854	-31.4068	-63.3094	-132.764	-46.1001	-55.2378	-147.265	-40.8509	-18.4177	-167.348	-50.0146	-51.1149	-143.435	-60.7298	-35.6609	-156.702	-41.8827	-6.39184	-170.813	-63.3751	-43.2203	-152.473	-64.7496	-24.9416	-166.673	-53.6768	0.63664	-207.259	-31.2161	-15.8997	-210.825	-30.7139	14.1134	-188.312	-6.39174	3.30882	
37	0.308333	-154.458	-5.32754	9.77978	-130.822	-13.2694	-17.3256	-119.982	-27.6281	-37.8538	-123.035	-51.4851	-55.2659	-172.227	-7.31892	-68.4925	-161.152	-10.3299	-94.9673	-138.695	-20.0381	-110.413	-160.299	-36.849	-61.9629	-130.594	-47.2387	-51.7943	-146.663	-39.1025	-18.1413	-162.766	-55.3105	-49.5903	-136.678	-56.5842	-29.3197	-157.35	-42.7185	-3.76425	-170.233	-69.4317	-41.008	-147.336	-67.729	-22.1534	-157.923	-51.449	-1.15392	-204.804	-33.8993	-15.8776	-213.102	-38.1787	13.271	-191.644	-4.92188	-2.42907	
38	0.316667	-161.48	-3.05787	7.11979	-131.179	-7.58944	-16.2573	-117.84	-23.5528	-39.5079	-120.315	-48.3726	-48.1206	-174.283	-10.7343	-66.8987	-163.666	-11.7627	-97.1658	-149.412	-23.0461	-117.297	-156.077	-35.2361	-63.1459	-126.795	-44.0956	-49.2281	-148.676	-34.9495	-16.2037	-155.21	-54.005	-48.9802	-132.373	-54.5278	-28.1105	-151.511	-40.3249	-4.10999	-160.101	-69.2101	-37.8768	-141.284	-65.2356	-18.5233	-161.15	-49.0196	3.53708	-203.725	-43.7732	-17.7978	-210.649	-37.9071	10.8527	-197.354	-7.47754	-5.74783	
39	0.325	-166.975	-1.50476	4.56008	-138.845	-5.79103	-15.0084	-119.364	-21.29	-40.0507	-118.619	-49.8442	-49.4592	-175.073	-16.8936	-73.645	-168.173	-17.7323	-95.7187	-153.448	-25.1867	-121.14	-151.706	-42.3546	-63.8232	-124.664	-41.0533	-46.685	-144.497	-33.5172	-17.7637	-151.931	-53.6991	-47.3941	-130.049	-50.5545	-24.9576	-153.289	-37.7367	-1.95229	-152.06	-69.9387	-34.9115	-137.402	-58.97	-15.1259	-160.779	-46.4546	1.51878	-203.276	-45.4344	-20.1982	-210.44	-44.7125	9.92575	-200.35	-10.5489	-6.98448	
40	0.333333	-169.118	5.33581	0.476761	-141.23	-1.56411	-19.5612	-120.763	-14.6629	-40.0429	-114.482	-42.5328	-47.7421	-177.242	-21.5089	-74.7774	-168.187	-22.2856	-98.7133	-157.251	-30.9298	-119.816	-150.549	-41.1224	-63.3937	-123.033	-36.4903	-48.9372	-146.563	-23.8569	-19.0777	-147.951	-55.2294	-45.11	-126.529	-45.4009	-24.9894	-152.27	-30.8365	-3.83853	-150.78	-66.9298	-33.8209	-134.167	-55.1698	-13.2812	-156.762	-40.4285	1.98353	-199.96	-53.6297	-22.549	-210.318	-46.4784	9.19684	-204.731	-16.4961	-10.5831	
41	0.341667	-177.39	7.57761	-1.92219	-147.634	3.5377	-17.3934	-121.918	-8.62407	-41.2435	-116.493	-35.8915	-45.0921	-179.206	-20.7632	-73.3927	-171.746	-24.411	-97.3708	-158.987	-32.9772	-118.925	-149.013	-39.3554	-64.3316	-122.717	-28.7066	-49.5984	-147.555	-24.1427	-19.0042	-145.642	-52.8196	-44.3399	-125.974	-36.3884	-26.0606	-150.465	-25.2118	-5.27567	-143.038	-64.8283	-29.9661	-132.719	-46.0307	-11.4505	-160.045	-38.3443	5.01647	-197.785	-53.862	-21.3198	-209.016	-46.4405	7.97782	-207.679	-17.1412	-11.6257	
42	0.35	-183.285	5.25907	-5.44935	-152.488	10.5177	-21.7114	-128.819	-5.42711	-39.5746	-117.273	-25.8448	-41.5562	-182.834	-20.7693	-74.929	-171.138	-26.3346	-101.901	-157.215	-31.4569	-124.826	-148.136	-35.5727	-65.4312	-123.961	-22.9993	-50.7536	-152.427	-14.6891	-21.3468	-143.754	-47.19	-43.4031	-125.984	-31.6198	-22.4096	-151.724	-21.1371	-4.66817	-139.677	-57.947	-27.9512	-131.99	-36.9165	-10.6212	-158.187	-31.8529	4.33363	-196.458	-55.1221	-18.9625	-207.91	-50.3907	9.57508	-210.437	-22.3093	-13.1375	
43	0.358333	-192.671	6.57465	-6.212	-161.528	10.0726	-22.2169	-135.875	4.98717	-36.7114	-116.716	-19.0369	-41.0131	-181.738	-27.2227	-75.5646	-175.247	-25.0853	-100.199	-161.091	-29.8348	-121.219	-152.353	-35.5213	-64.1561	-127.213	-12.9463	-55.1246	-149.986	-10.2544	-24.9547	-140.797	-39.5067	-44.8579	-125.623	-22.6184	-27.641	-152.385	-17.9007	-3.64839	-138.056	-47.6172	-29.0875	-131.37	-29.1604	-10.463	-155.706	-26.7945	5.41072	-193.252	-56.3031	-21.3054	-206.182	-56.3247	10.5223	-214.291	-25.4846	-14.4514	
44	0.366667	-201.118	1.63246	-4.79763	-168.883	15.786	-23.3209	-139.205	9.69996	-40.7307	-123.454	-10.8768	-38.7296	-185.024	-24.7297	-75.1357	-176.085	-26.3721	-99.4104	-159.662	-28.2939	-123.169	-157.138	-32.0913	-66.4736	-130.317	-12.9322	-63.4128	-150.037	-2.08575	-28.6461	-140.072	-35.2953	-45.2881	-127.1	-15.3092	-30.5644	-153.689	-12.2038	-5.79218	-139.849	-45.3077	-27.8314	-132.863	-20.9921	-10.1883	-160.586	-21.5553	3.14312	-191.216	-57.4353	-18.2215	-206.955	-54.6441	7.73307	-216.704	-30.6968	-19.6128	
45	0.375	-207.1	0.625651	-8.93058	-175.669	14.6625	-25.9247	-149.326	12.4254	-36.0763	-128.121	0.708907	-38.2506	-187.466	-26.2872	-77.2051	-177.503	-25.0372	-103.274	-163.454	-24.8568	-124.783	-157.139	-32.1102	-70.4668	-132.313	-10.258	-66.932	-146.064	4.85022	-35.913	-145.811	-30.9271	-48.5258	-131.095	-8.3321	-35.1409	-158.401	-6.41526	-9.44189	-136.385	-36.7526	-28.6176	-132.884	-15.0385	-12.6854	-157.483	-14.4145	2.8717	-187.397	-60.7232	-15.8087	-207.67	-58.4949	9.05604	-217.934	-35.9912	-17.7947	
46	0.383333	-213.069	-1.57055	-14.0139	-183.851	17.6851	-27.231	-155.521	16.1608	-37.9585	-131.91	0.794055	-36.8656	-191.014	-27.6537	-77.4655	-181.877	-27.2847	-101.625	-166.003	-25.6963	-124.63	-162.302	-35.3435	-73.5807	-136.37	-11.5337	-79.5903	-139.05	10.5667	-50.3651	-144.242	-32.4402	-46.5677	-134.434	-3.05661	-38.8087	-156.677	-1.94528	-12.0012	-137.042	-32.1009	-28.9977	-135.146	-9.45508	-19.1601	-158.697	-9.38121	-0.197228	-188.172	-58.7864	-19.2252	-204.866	-60.014	9.99636	-219.357	-39.0456	-19.8524	
47	0.391667	-216.439	-1.19678	-13.3671	-185.834	13.4814	-25.5744	-155.726	20.1065	-40.3769	-131.944	9.68426	-38.7568	-192.574	-28.2495	-81.4901	-186.711	-24.3312	-103.318	-174.405	-21.3138	-128.56	-166.061	-39.7644	-71.0965	-138.511	-22.5605	-86.2622	-131.807	11.5448	-68.0662	-144.582	-28.9529	-50.2242	-136.361	-2.93189	-42.5028	-159.126	0.941924	-15.4207	-141.788	-31.941	-28.9012	-138.663	-6.0362	-17.8414	-164.026	-6.62755	-0.987315	-188.386	-57.758	-15.5343	-205.802	-60.5223	5.24994	-221.176	-41.7799	-21.2012	
48	0.4	-219.235	-3.32588	-11.3796	-187.879	14.5293	-24.1575	-157.487	22.4603	-38.4517	-134.04	7.74559	-35.6873	-195.404	-28.6247	-80.5206	-187.028	-26.1093	-105.779	-176.49	-21.3612	-128.845	-167.017	-43.0966	-70.7899	-143.654	-27.2319	-93.3341	-127.978	7.11663	-84.5144	-151.459	-31.1194	-51.8382	-134.508	-4.92783	-43.7317	-161.456	3.83161	-22.865	-139.014	-29.226	-29.4946	-141.413	-2.85609	-20.0443	-162.258	-1.65532	-3.62381	-188.082	-59.8901	-15.7663	-203.239	-60.8021	5.5348	-219.36	-45.0637	-18.5431	
49	0.408333	-218.232	-1.14384	-15.8641	-188.185	14.5232	-24.6068	-158.331	20.2966	-35.6137	-132.309	9.57288	-35.3825	-195.168	-28.4635	-83.4335	-188.701	-23.1987	-109.352	-179.971	-18.1691	-130.299	-169.114	-45.474	-73.5397	-145.356	-35.8514	-94.1256	-120.643	-5.35194	-94.5446	-149.144	-34.8063	-54.4403	-134.853	-6.34242	-51.2963	-152.384	5.86088	-25.774	-145.681	-33.4789	-30.7368	-140.219	-5.04565	-25.6951	-161.956	1.08243	-2.14731	-188.329	-60.0587	-20.0438	-206.116	-59.0354	5.37635	-220.459	-43.9345	-21.5142	
50	0.416667	-220.042	-1.83581	-11.5951	-186.554	16.1477	-25.5664	-157.652	20.1627	-33.8104	-130.707	11.0752	-34.4008	-198.191	-25.7267	-79.7256	-187.514	-25.0515	-108.751	-181.906	-17.569	-130.022	-170.01	-46.1814	-72.7922	-147.246	-41.2278	-96.3099	-122.535	-19.147	-104.683	-152.598	-38.3902	-55.5091	-130.72	-12.2371	-55.6429	-146.554	7.89703	-32.3768	-141.469	-31.3182	-32.1778	-135.055	-6.61332	-24.6924	-157.63	3.64943	-8.10997	-189.88	-59.593	-18.4378	-204.167	-62.6354	5.12132	-220.286	-44.6354	-22.1954	
51	0.425	-218.998	-0.670867	-10.5544	-186	19.6706	-23.8304	-155.761	18.3452	-32.3072	-128.821	3.8593	-32.3064	-196.617	-26.4411	-81.5746	-189.384	-22.0489	-108.211	-178.592	-16.55	-132.274	-172.582	-45.9818	-73.3916	-155.265	-43.8741	-97.8804	-122.009	-25.6521	-113.283	-155.126	-39.9705	-58.9157	-131.612	-17.9463	-65.4534	-131.743	5.39756	-43.9097	-141.249	-35.7307	-31.0437	-136.668	-5.85278	-26.3125	-158.195	1.83322	-10.492	-190.541	-57.8046	-20.7363	-203.414	-61.913	6.86545	-222.317	-42.8015	-23.8073	
